<?xml version="1.0" standalone="no"?>
<!DOCTYPE svg PUBLIC "-//W3C//DTD SVG 20010904//EN"
 "http://www.w3.org/TR/2001/REC-SVG-20010904/DTD/svg10.dtd">
<svg version="1.0" xmlns="http://www.w3.org/2000/svg"
 width="200.000000pt" height="200.000000pt" viewBox="0 0 200.000000 200.000000"
 preserveAspectRatio="xMidYMid meet">
<metadata>
Created by potrace 1.11, written by Peter Selinger 2001-2013
</metadata>
<g transform="translate(0.000000,200.000000) scale(0.100000,-0.100000)"
fill="#000000" stroke="none">
<path d="M611 1112 c-38 -21 -71 -73 -71 -112 0 -61 68 -130 128 -130 92 0
155 96 119 182 -28 67 -112 96 -176 60z"/>
<path d="M1271 1113 c-64 -32 -86 -126 -44 -189 17 -26 71 -54 105 -54 60 0
128 69 128 130 0 62 -69 130 -130 130 -14 0 -40 -8 -59 -17z"/>
</g>
</svg>
